<svg aria-roledescription="er" role="graphics-document document" viewBox="0 0 393.7867126464844 293" style="max-width: 393.787px; background-color: white;" xmlns:xlink="http://www.w3.org/1999/xlink" xmlns="http://www.w3.org/2000/svg" width="100%" id="mermaid-0"><style>#mermaid-0{font-family:"trebuchet ms",verdana,arial,sans-serif;font-size:16px;fill:#000000;}#mermaid-0 .error-icon{fill:#552222;}#mermaid-0 .error-text{fill:#552222;stroke:#552222;}#mermaid-0 .edge-thickness-normal{stroke-width:2px;}#mermaid-0 .edge-thickness-thick{stroke-width:3.5px;}#mermaid-0 .edge-pattern-solid{stroke-dasharray:0;}#mermaid-0 .edge-pattern-dashed{stroke-dasharray:3;}#mermaid-0 .edge-pattern-dotted{stroke-dasharray:2;}#mermaid-0 .marker{fill:#000000;stroke:#000000;}#mermaid-0 .marker.cross{stroke:#000000;}#mermaid-0 svg{font-family:"trebuchet ms",verdana,arial,sans-serif;font-size:16px;}#mermaid-0 .entityBox{fill:#cde498;stroke:#13540c;}#mermaid-0 .attributeBoxOdd{fill:#ffffff;stroke:#13540c;}#mermaid-0 .attributeBoxEven{fill:#f2f2f2;stroke:#13540c;}#mermaid-0 .relationshipLabelBox{fill:hsl(78.1578947368, 58.4615384615%, 84.5098039216%);opacity:0.7;background-color:hsl(78.1578947368, 58.4615384615%, 84.5098039216%);}#mermaid-0 .relationshipLabelBox rect{opacity:0.5;}#mermaid-0 .relationshipLine{stroke:#000000;}#mermaid-0 .entityTitleText{text-anchor:middle;font-size:18px;fill:#000000;}#mermaid-0 :root{--mermaid-font-family:"trebuchet ms",verdana,arial,sans-serif;}</style><g/><defs><marker orient="auto" markerHeight="18" markerWidth="18" refY="9" refX="0" id="ONLY_ONE_START"><path d="M9,0 L9,18 M15,0 L15,18" fill="none" stroke="gray"/></marker></defs><defs><marker orient="auto" markerHeight="18" markerWidth="18" refY="9" refX="18" id="ONLY_ONE_END"><path d="M3,0 L3,18 M9,0 L9,18" fill="none" stroke="gray"/></marker></defs><defs><marker orient="auto" markerHeight="18" markerWidth="30" refY="9" refX="0" id="ZERO_OR_ONE_START"><circle r="6" cy="9" cx="21" fill="white" stroke="gray"/><path d="M9,0 L9,18" fill="none" stroke="gray"/></marker></defs><defs><marker orient="auto" markerHeight="18" markerWidth="30" refY="9" refX="30" id="ZERO_OR_ONE_END"><circle r="6" cy="9" cx="9" fill="white" stroke="gray"/><path d="M21,0 L21,18" fill="none" stroke="gray"/></marker></defs><defs><marker orient="auto" markerHeight="36" markerWidth="45" refY="18" refX="18" id="ONE_OR_MORE_START"><path d="M0,18 Q 18,0 36,18 Q 18,36 0,18 M42,9 L42,27" fill="none" stroke="gray"/></marker></defs><defs><marker orient="auto" markerHeight="36" markerWidth="45" refY="18" refX="27" id="ONE_OR_MORE_END"><path d="M3,9 L3,27 M9,18 Q27,0 45,18 Q27,36 9,18" fill="none" stroke="gray"/></marker></defs><defs><marker orient="auto" markerHeight="36" markerWidth="57" refY="18" refX="18" id="ZERO_OR_MORE_START"><circle r="6" cy="18" cx="48" fill="white" stroke="gray"/><path d="M0,18 Q18,0 36,18 Q18,36 0,18" fill="none" stroke="gray"/></marker></defs><defs><marker orient="auto" markerHeight="36" markerWidth="57" refY="18" refX="39" id="ZERO_OR_MORE_END"><circle r="6" cy="18" cx="9" fill="white" stroke="gray"/><path d="M21,18 Q39,0 57,18 Q39,36 21,18" fill="none" stroke="gray"/></marker></defs><path style="stroke: gray; fill: none;" marker-start="url(#ZERO_OR_MORE_START)" marker-end="url(#ONLY_ONE_END)" d="M78.18888854980469,107L78.18888854980469,115.33333333333333C78.18888854980469,123.66666666666667,78.18888854980469,140.33333333333334,95.47374089558919,157.52165577970948C112.7585932413737,174.7099782260856,147.32829793294272,192.41995645217128,164.6131502787272,201.2749455652141L181.89800262451172,210.12993467825692" class="er relationshipLine"/><path style="stroke: gray; fill: none;" marker-start="url(#ZERO_OR_MORE_START)" marker-end="url(#ONLY_ONE_END)" d="M273.36728194945636,107L267.8400814035997,115.33333333333333C262.31288085774304,123.66666666666667,251.25847976602972,140.33333333333334,245.73127922017306,157C240.2040786743164,173.66666666666666,240.2040786743164,190.33333333333334,240.2040786743164,198.66666666666666L240.2040786743164,207" class="er relationshipLine"/><path style="stroke: gray; fill: none;" marker-start="url(#ZERO_OR_MORE_START)" marker-end="url(#ONLY_ONE_END)" d="M325.4813008843896,107L329.93762887012934,115.33333333333333C334.39395685586913,123.66666666666667,343.3066128273486,140.33333333333334,336.51643578050687,157C329.72625873366513,173.66666666666666,307.23324866850214,190.33333333333334,295.9867436359206,198.66666666666666L284.74023860333915,207" class="er relationshipLine"/><g transform="translate(20,20 )" id="entity-Users-8b6eb67b-f64b-5426-9c24-135a96b8b656"><rect height="87" width="116.37777709960938" y="0" x="0" class="er entityBox"/><text style="dominant-baseline: middle; text-anchor: middle; font-size: 12px;" transform="translate(58.18888854980469,12)" y="0" x="0" id="text-entity-Users-8b6eb67b-f64b-5426-9c24-135a96b8b656" class="er entityLabel">Users</text><rect height="21" width="36.947052001953125" y="24" x="0" class="er attributeBoxOdd"/><text style="dominant-baseline: middle; font-size: 10.2px;" transform="translate(5,34.5)" y="0" x="0" id="text-entity-Users-8b6eb67b-f64b-5426-9c24-135a96b8b656-attr-1-type" class="er entityLabel">Int</text><rect height="21" width="55.6357421875" y="24" x="36.947052001953125" class="er attributeBoxOdd"/><text style="dominant-baseline: middle; font-size: 10.2px;" transform="translate(41.947052001953125,34.5)" y="0" x="0" id="text-entity-Users-8b6eb67b-f64b-5426-9c24-135a96b8b656-attr-1-name" class="er entityLabel">id</text><rect height="21" width="23.79498291015625" y="24" x="92.58279418945312" class="er attributeBoxOdd"/><text style="dominant-baseline: middle; font-size: 10.2px;" transform="translate(97.58279418945312,34.5)" y="0" x="0" id="text-entity-Users-8b6eb67b-f64b-5426-9c24-135a96b8b656-attr-1-key" class="er entityLabel">PK</text><rect height="21" width="36.947052001953125" y="45" x="0" class="er attributeBoxEven"/><text style="dominant-baseline: middle; font-size: 10.2px;" transform="translate(5,55.5)" y="0" x="0" id="text-entity-Users-8b6eb67b-f64b-5426-9c24-135a96b8b656-attr-2-type" class="er entityLabel">String</text><rect height="21" width="55.6357421875" y="45" x="36.947052001953125" class="er attributeBoxEven"/><text style="dominant-baseline: middle; font-size: 10.2px;" transform="translate(41.947052001953125,55.5)" y="0" x="0" id="text-entity-Users-8b6eb67b-f64b-5426-9c24-135a96b8b656-attr-2-name" class="er entityLabel">username</text><rect height="21" width="23.79498291015625" y="45" x="92.58279418945312" class="er attributeBoxEven"/><text style="dominant-baseline: middle; font-size: 10.2px;" transform="translate(97.58279418945312,55.5)" y="0" x="0" id="text-entity-Users-8b6eb67b-f64b-5426-9c24-135a96b8b656-attr-2-key" class="er entityLabel"/><rect height="21" width="36.947052001953125" y="66" x="0" class="er attributeBoxOdd"/><text style="dominant-baseline: middle; font-size: 10.2px;" transform="translate(5,76.5)" y="0" x="0" id="text-entity-Users-8b6eb67b-f64b-5426-9c24-135a96b8b656-attr-3-type" class="er entityLabel">String</text><rect height="21" width="55.6357421875" y="66" x="36.947052001953125" class="er attributeBoxOdd"/><text style="dominant-baseline: middle; font-size: 10.2px;" transform="translate(41.947052001953125,76.5)" y="0" x="0" id="text-entity-Users-8b6eb67b-f64b-5426-9c24-135a96b8b656-attr-3-name" class="er entityLabel">password</text><rect height="21" width="23.79498291015625" y="66" x="92.58279418945312" class="er attributeBoxOdd"/><text style="dominant-baseline: middle; font-size: 10.2px;" transform="translate(97.58279418945312,76.5)" y="0" x="0" id="text-entity-Users-8b6eb67b-f64b-5426-9c24-135a96b8b656-attr-3-key" class="er entityLabel"/></g><g transform="translate(181.89800262451172,207 )" id="entity-Accounts-0d3cf2e9-35e5-50b3-a379-7b394fa0bf89"><rect height="66" width="116.61215209960938" y="0" x="0" class="er entityBox"/><text style="dominant-baseline: middle; text-anchor: middle; font-size: 12px;" transform="translate(58.30607604980469,12)" y="0" x="0" id="text-entity-Accounts-0d3cf2e9-35e5-50b3-a379-7b394fa0bf89" class="er entityLabel">Accounts</text><rect height="21" width="46.796875" y="24" x="0" class="er attributeBoxOdd"/><text style="dominant-baseline: middle; font-size: 10.2px;" transform="translate(5,34.5)" y="0" x="0" id="text-entity-Accounts-0d3cf2e9-35e5-50b3-a379-7b394fa0bf89-attr-1-type" class="er entityLabel">Int</text><rect height="21" width="46.020294189453125" y="24" x="46.796875" class="er attributeBoxOdd"/><text style="dominant-baseline: middle; font-size: 10.2px;" transform="translate(51.796875,34.5)" y="0" x="0" id="text-entity-Accounts-0d3cf2e9-35e5-50b3-a379-7b394fa0bf89-attr-1-name" class="er entityLabel">id</text><rect height="21" width="23.79498291015625" y="24" x="92.81716918945312" class="er attributeBoxOdd"/><text style="dominant-baseline: middle; font-size: 10.2px;" transform="translate(97.81716918945312,34.5)" y="0" x="0" id="text-entity-Accounts-0d3cf2e9-35e5-50b3-a379-7b394fa0bf89-attr-1-key" class="er entityLabel">PK</text><rect height="21" width="46.796875" y="45" x="0" class="er attributeBoxEven"/><text style="dominant-baseline: middle; font-size: 10.2px;" transform="translate(5,55.5)" y="0" x="0" id="text-entity-Accounts-0d3cf2e9-35e5-50b3-a379-7b394fa0bf89-attr-2-type" class="er entityLabel">Decimal</text><rect height="21" width="46.020294189453125" y="45" x="46.796875" class="er attributeBoxEven"/><text style="dominant-baseline: middle; font-size: 10.2px;" transform="translate(51.796875,55.5)" y="0" x="0" id="text-entity-Accounts-0d3cf2e9-35e5-50b3-a379-7b394fa0bf89-attr-2-name" class="er entityLabel">balance</text><rect height="21" width="23.79498291015625" y="45" x="92.81716918945312" class="er attributeBoxEven"/><text style="dominant-baseline: middle; font-size: 10.2px;" transform="translate(97.81716918945312,55.5)" y="0" x="0" id="text-entity-Accounts-0d3cf2e9-35e5-50b3-a379-7b394fa0bf89-attr-2-key" class="er entityLabel"/></g><g transform="translate(236.37777709960938,20 )" id="entity-Transactions-e4309bf2-7d25-5727-9845-92fca8e1a191"><rect height="87" width="131.6829833984375" y="0" x="0" class="er entityBox"/><text style="dominant-baseline: middle; text-anchor: middle; font-size: 12px;" transform="translate(65.84149169921875,12)" y="0" x="0" id="text-entity-Transactions-e4309bf2-7d25-5727-9845-92fca8e1a191" class="er entityLabel">Transactions</text><rect height="21" width="54.113128662109375" y="24" x="0" class="er attributeBoxOdd"/><text style="dominant-baseline: middle; font-size: 10.2px;" transform="translate(5,34.5)" y="0" x="0" id="text-entity-Transactions-e4309bf2-7d25-5727-9845-92fca8e1a191-attr-1-type" class="er entityLabel">Int</text><rect height="21" width="53.774871826171875" y="24" x="54.113128662109375" class="er attributeBoxOdd"/><text style="dominant-baseline: middle; font-size: 10.2px;" transform="translate(59.113128662109375,34.5)" y="0" x="0" id="text-entity-Transactions-e4309bf2-7d25-5727-9845-92fca8e1a191-attr-1-name" class="er entityLabel">id</text><rect height="21" width="23.79498291015625" y="24" x="107.88800048828125" class="er attributeBoxOdd"/><text style="dominant-baseline: middle; font-size: 10.2px;" transform="translate(112.88800048828125,34.5)" y="0" x="0" id="text-entity-Transactions-e4309bf2-7d25-5727-9845-92fca8e1a191-attr-1-key" class="er entityLabel">PK</text><rect height="21" width="54.113128662109375" y="45" x="0" class="er attributeBoxEven"/><text style="dominant-baseline: middle; font-size: 10.2px;" transform="translate(5,55.5)" y="0" x="0" id="text-entity-Transactions-e4309bf2-7d25-5727-9845-92fca8e1a191-attr-2-type" class="er entityLabel">Decimal</text><rect height="21" width="53.774871826171875" y="45" x="54.113128662109375" class="er attributeBoxEven"/><text style="dominant-baseline: middle; font-size: 10.2px;" transform="translate(59.113128662109375,55.5)" y="0" x="0" id="text-entity-Transactions-e4309bf2-7d25-5727-9845-92fca8e1a191-attr-2-name" class="er entityLabel">value</text><rect height="21" width="23.79498291015625" y="45" x="107.88800048828125" class="er attributeBoxEven"/><text style="dominant-baseline: middle; font-size: 10.2px;" transform="translate(112.88800048828125,55.5)" y="0" x="0" id="text-entity-Transactions-e4309bf2-7d25-5727-9845-92fca8e1a191-attr-2-key" class="er entityLabel"/><rect height="21" width="54.113128662109375" y="66" x="0" class="er attributeBoxOdd"/><text style="dominant-baseline: middle; font-size: 10.2px;" transform="translate(5,76.5)" y="0" x="0" id="text-entity-Transactions-e4309bf2-7d25-5727-9845-92fca8e1a191-attr-3-type" class="er entityLabel">DateTime</text><rect height="21" width="53.774871826171875" y="66" x="54.113128662109375" class="er attributeBoxOdd"/><text style="dominant-baseline: middle; font-size: 10.2px;" transform="translate(59.113128662109375,76.5)" y="0" x="0" id="text-entity-Transactions-e4309bf2-7d25-5727-9845-92fca8e1a191-attr-3-name" class="er entityLabel">createdAt</text><rect height="21" width="23.79498291015625" y="66" x="107.88800048828125" class="er attributeBoxOdd"/><text style="dominant-baseline: middle; font-size: 10.2px;" transform="translate(112.88800048828125,76.5)" y="0" x="0" id="text-entity-Transactions-e4309bf2-7d25-5727-9845-92fca8e1a191-attr-3-key" class="er entityLabel"/></g><rect height="14" width="42.6953125" y="164.97555541992188" x="92.09532928466797" class="er relationshipLabelBox"/><text style="text-anchor: middle; dominant-baseline: middle; font-size: 12px;" y="171.97555541992188" x="113.44298553466797" id="rel1" class="er relationshipLabel">account</text><rect height="14" width="86.716796875" y="146.81631469726562" x="203.4939727783203" class="er relationshipLabelBox"/><text style="text-anchor: middle; dominant-baseline: middle; font-size: 12px;" y="153.81631469726562" x="246.8523712158203" id="rel2" class="er relationshipLabel">creditedAccount</text><rect height="14" width="83.39453125" y="158.55303955078125" x="290.0621032714844" class="er relationshipLabelBox"/><text style="text-anchor: middle; dominant-baseline: middle; font-size: 12px;" y="165.55303955078125" x="331.7593688964844" id="rel3" class="er relationshipLabel">debitedAccount</text></svg>